/* XPM */
static char * 48x48_xpm[] = {
"48 48 360 2",
"  	c None",
". 	c #000000",
"+ 	c #130802",
"@ 	c #351704",
"# 	c #4E2206",
"$ 	c #5F2A09",
"% 	c #672D08",
"& 	c #682D08",
"* 	c #602A09",
"= 	c #4F2307",
"- 	c #311604",
"; 	c #0A0400",
"> 	c #010000",
", 	c #0B0A06",
"' 	c #3D3B22",
") 	c #676439",
"! 	c #847F49",
"~ 	c #949050",
"{ 	c #999553",
"] 	c #938E50",
"^ 	c #807B45",
"/ 	c #5C5933",
"( 	c #242215",
"_ 	c #050200",
": 	c #210D02",
"< 	c #592607",
"[ 	c #A0470D",
"} 	c #BA510B",
"| 	c #B8500B",
"1 	c #B44E0A",
"2 	c #B24D09",
"3 	c #B14C09",
"4 	c #B04C09",
"5 	c #B14D09",
"6 	c #B8500A",
"7 	c #B74F0B",
"8 	c #99440E",
"9 	c #261106",
"0 	c #1F1E11",
"a 	c #636036",
"b 	c #BFBC6B",
"c 	c #FFFF95",
"d 	c #FFFF8F",
"e 	c #FFFF8D",
"f 	c #FFFD8A",
"g 	c #FFFA88",
"h 	c #FFF988",
"i 	c #FFFB88",
"j 	c #FFFE8A",
"k 	c #FFFF91",
"l 	c #E2DE7D",
"m 	c #6C6B3D",
"n 	c #020201",
"o 	c #361707",
"p 	c #9C440A",
"q 	c #A94A0A",
"r 	c #B04C0A",
"s 	c #AE4B09",
"t 	c #AD4A0A",
"u 	c #AD4B0A",
"v 	c #AD4B0B",
"w 	c #AC4A09",
"x 	c #B54F0B",
"y 	c #73330A",
"z 	c #130701",
"A 	c #080705",
"B 	c #BEBE6B",
"C 	c #F2E980",
"D 	c #FEF788",
"E 	c #FFF887",
"F 	c #FDF586",
"G 	c #FCF586",
"H 	c #FCF585",
"I 	c #FEF786",
"J 	c #FFF888",
"K 	c #FAF385",
"L 	c #575430",
"M 	c #0E0601",
"N 	c #78340A",
"O 	c #B9500A",
"P 	c #AB4A09",
"Q 	c #AE4A09",
"R 	c #AE4B0B",
"S 	c #AE4C0B",
"T 	c #AC4A0A",
"U 	c #B14C0A",
"V 	c #9C440B",
"W 	c #351705",
"X 	c #040402",
"Y 	c #626139",
"Z 	c #FFFF8E",
"` 	c #FFF786",
" .	c #FDF686",
"..	c #FEF586",
"+.	c #FEF686",
"@.	c #FEF687",
"#.	c #FEF587",
"$.	c #FDF587",
"%.	c #FFFF8B",
"&.	c #656239",
"*.	c #311507",
"=.	c #A74A0A",
"-.	c #AE4B0A",
";.	c #AE4C0A",
">.	c #78350A",
",.	c #070300",
"'.	c #111009",
").	c #C7C16D",
"!.	c #FDF888",
"~.	c #451E07",
"{.	c #B34D0B",
"].	c #AD4C0A",
"^.	c #AD4C0B",
"/.	c #B84F0B",
"(.	c #6A2E08",
"_.	c #100F09",
":.	c #DAD577",
"<.	c #2E1304",
"[.	c #B14D0B",
"}.	c #AC4B0A",
"|.	c #AD4A0B",
"1.	c #AE4D0A",
"2.	c #6A2F08",
"3.	c #0D0C07",
"4.	c #FFF98C",
"5.	c #301505",
"6.	c #AC4B09",
"7.	c #8F3E0B",
"8.	c #020000",
"9.	c #C7C36D",
"0.	c #FDF687",
"a.	c #040100",
"b.	c #97420A",
"c.	c #B7500D",
"d.	c #928E52",
"e.	c #FFFF8A",
"f.	c #662D08",
"g.	c #B34D0A",
"h.	c #AF4C0A",
"i.	c #391804",
"j.	c #2E2C19",
"k.	c #FEFB8A",
"l.	c #FDF485",
"m.	c #FCF484",
"n.	c #FFFD8B",
"o.	c #FDF484",
"p.	c #FCF486",
"q.	c #120702",
"r.	c #B44F0B",
"s.	c #9C450B",
"t.	c #060200",
"u.	c #C1BE6B",
"v.	c #E6E582",
"w.	c #AAA65D",
"x.	c #69663A",
"y.	c #474527",
"z.	c #3C3A24",
"A.	c #524F2D",
"B.	c #8D894C",
"C.	c #D1D078",
"D.	c #656138",
"E.	c #5D2908",
"F.	c #AD4B09",
"G.	c #B24E0A",
"H.	c #4A2006",
"I.	c #302F1B",
"J.	c #FFFB89",
"K.	c #FDF585",
"L.	c #8E894E",
"M.	c #0A0A06",
"N.	c #030302",
"O.	c #34331D",
"P.	c #EAE780",
"Q.	c #6B683C",
"R.	c #A3470B",
"S.	c #AB4B0A",
"T.	c #0A0401",
"U.	c #949354",
"V.	c #F7F486",
"W.	c #474528",
"X.	c #020100",
"Y.	c #252416",
"Z.	c #190A03",
"`.	c #AD4A09",
" +	c #8F400C",
".+	c #0C0B06",
"++	c #E6DE7C",
"@+	c #FFFB8A",
"#+	c #565430",
"$+	c #5D2A0A",
"%+	c #B24D0A",
"&+	c #552606",
"*+	c #1D1C10",
"=+	c #F0EF83",
"-+	c #FCF386",
";+	c #C3C06C",
">+	c #813A0A",
",+	c #3C1B05",
"'+	c #34321C",
")+	c #F9F486",
"!+	c #5E5B34",
"~+	c #030100",
"{+	c #8F3E09",
"]+	c #B24D0B",
"^+	c #2B1203",
"/+	c #424024",
"(+	c #FFFF93",
"_+	c #121109",
":+	c #060301",
"<+	c #954109",
"[+	c #B34E09",
"}+	c #220F04",
"|+	c #4B4929",
"1+	c #FFF787",
"2+	c #FFF889",
"3+	c #050403",
"4+	c #070301",
"5+	c #200E04",
"6+	c #4C4B29",
"7+	c #FBF385",
"8+	c #913F09",
"9+	c #B34E0B",
"0+	c #261004",
"a+	c #474526",
"b+	c #080704",
"c+	c #883B0A",
"d+	c #341704",
"e+	c #3B381F",
"f+	c #2E2C1A",
"g+	c #72330A",
"h+	c #AD4A08",
"i+	c #471F06",
"j+	c #292816",
"k+	c #F5F184",
"l+	c #FDF486",
"m+	c #88874E",
"n+	c #3C1B06",
"o+	c #B44E0B",
"p+	c #72310A",
"q+	c #11110A",
"r+	c #EBEA82",
"s+	c #F7EF84",
"t+	c #030001",
"u+	c #A2470A",
"v+	c #030201",
"w+	c #BEBB69",
"x+	c #B8B465",
"y+	c #8A3E0B",
"z+	c #271103",
"A+	c #6C683C",
"B+	c #FFFC8A",
"C+	c #817D46",
"D+	c #262413",
"E+	c #6E6A41",
"F+	c #3C1A05",
"G+	c #6F3009",
"H+	c #000001",
"I+	c #D7D575",
"J+	c #4C4A2B",
"K+	c #262516",
"L+	c #A8A65D",
"M+	c #656238",
"N+	c #A0460B",
"O+	c #140801",
"P+	c #797745",
"Q+	c #FCF686",
"R+	c #DDD979",
"S+	c #B0AB5F",
"T+	c #979354",
"U+	c #928D51",
"V+	c #A49F59",
"W+	c #CDC66E",
"X+	c #FEF888",
"Y+	c #341605",
"Z+	c #AC4B0B",
"`+	c #5F2907",
" @	c #0A0905",
".@	c #F9F487",
"+@	c #FCF485",
"@@	c #FEF585",
"#@	c #FDF487",
"$@	c #793509",
"%@	c #AE4A08",
"&@	c #BB520C",
"*@	c #361805",
"=@	c #474628",
"-@	c #FFF989",
";@	c #FCF587",
">@	c #B1500F",
",@	c #100701",
"'@	c #918D4F",
")@	c #0D0501",
"!@	c #9E450B",
"~@	c #9A440C",
"{@	c #080300",
"]@	c #9E9C58",
"^@	c #FFFF8C",
"/@	c #FDF385",
"(@	c #110701",
"_@	c #A2470C",
":@	c #AF4B09",
"<@	c #9B440C",
"[@	c #999654",
"}@	c #FFFC89",
"|@	c #070200",
"1@	c #7B360B",
"2@	c #AE4C09",
"3@	c #A7490B",
"4@	c #2F1504",
"5@	c #010100",
"6@	c #55532F",
"7@	c #B34D09",
"8@	c #552406",
"9@	c #160A02",
"0@	c #383621",
"a@	c #C3BD69",
"b@	c #FFFA89",
"c@	c #FFFF92",
"d@	c #625F37",
"e@	c #3F1B06",
"f@	c #9F460B",
"g@	c #BB520B",
"h@	c #AC4C0A",
"i@	c #A7490A",
"j@	c #71330A",
"k@	c #0F0500",
"l@	c #010201",
"m@	c #2F2E1A",
"n@	c #B7B165",
"o@	c #FCF384",
"p@	c #FEF487",
"q@	c #FDF584",
"r@	c #FFF78A",
"s@	c #6F6C3E",
"t@	c #1E0D03",
"u@	c #5F2B09",
"v@	c #823909",
"w@	c #9B440B",
"x@	c #A3460A",
"y@	c #A6480A",
"z@	c #A34709",
"A@	c #803709",
"B@	c #562709",
"C@	c #080302",
"D@	c #6E6B3E",
"E@	c #A2A15D",
"F@	c #DAD477",
"G@	c #ECE57E",
"H@	c #F2EA81",
"I@	c #F4EC82",
"J@	c #F1E980",
"K@	c #EAE37E",
"L@	c #C9C66F",
"M@	c #8A8B52",
"N@	c #3D3A22",
"O@	c #050202",
"P@	c #040403",
"Q@	c #0A0A07",
"R@	c #0A0906",
"S@	c #020202",
". . . . . . . . . . . . . . . . . . . . . . . . . . . . . . . . . . . . . . . . . . . . . . . . ",
". . . . . . . . . . . . . . . . . . . . . . . . . . . . . . . . . . . . . . . . . . . . . . . . ",
". . . . . . . . . . . . . . . . . . . . . . . . . . . . . . . . . . . . . . . . . . . . . . . . ",
". . . . . . . . . . . . . . . . . . . . . . . . . . . . . . . . . . . . . . . . . . . . . . . . ",
". . . . . . . . . . . . . . . . . . . . . . . . . . . . . . . . . . . . . . . . . . . . . . . . ",
". . . . . . . . . . . . . . . . . . . . . . . . . . . . . . . . . . . . . . . . . . . . . . . . ",
". . . . . . . . . . . . . . . . . . . . . . . . . . . . . . . . . . . . . . . . . . . . . . . . ",
". . . . . . . . . . . . . . . . . . . . . . . . . . . . . . . . . . . . . . . . . . . . . . . . ",
". . . . . . . . . . . . . . . . . . . . . . . . . . . . . . . . . . . . . . . . . . . . . . . . ",
". . . . . . . . . . . . . . . . . + @ # $ % & * = - ; > . . . . , ' ) ! ~ { ] ^ / ( . . . . . . ",
". . . . . . . . . . . . . _ : < [ } | 1 2 3 4 5 6 7 8 9 . 0 a b c d e f g h i j e k l m 0 n . . ",
". . . . . . . . . . . . o p q r s t u v v u w x y z > A B C D E F G F F F F F F F H I J K L . . ",
". . . . . . . . . . M N O P Q R S R u s T U V W . X Y Z `  ...+...@.F @.@.@.@.@. .#.+.$.%.&.. . ",
". . . . . . . . . *.=.s u -.u -.R ;.;.u 5 >.,.. '.).!.F F #.@.#.@.+.@.@.@.@.@.@.@.+.$.F %.&.. . ",
". . . . . . . . ~.{.t u -.].S ^.R -.t /.(.. . _.:.h F F $. .#.@.@.@.@.@.@.@.@.@.@.@.@.F %.&.. . ",
". . . . . . . <.[.}.].R ^.S S ;.u |.1.2.. . 3.4. .@.F @.#.@.@.@.@.@.@.@.@.@.@.@.@.@.@.F %.&.. . ",
". . . . . . 5.r u u ;.;.R S R S u 6.7.8.. . 9. .F @.@.@.@.@.@.@.@.@.#.@.#.0.@.0.@.$.@.F %.&.. . ",
". . . . . a.b.}.].S u S S ^.;.-.}.c.. . . d.e @.@.F @.@.@.@.@.@.0.#.+.#.F F F F F F F F e.&.. . ",
". . . . . f.g.-.v ^.S S S S ^.u h.i.. . j.k.l.0.@.@.@.@.@.@.@.0.+.$.F m.h e d d d n.o.p.e.&.. . ",
". . . . q.r.u ].R S S S S v S -.s.t.. . u.p.F +.@.@.@.@.@.#. . .0.F h v.w.x.y.z.A.B.C.%.%.D.. . ",
". . . . E.F.u S ^.S S S S S u G.H.. . I.J.K.@.$.@.@.@.@.@.+.#.F F n.L.M.. . . . . . N.O.P.Q.. . ",
". . . . R.u -.;.S S S R ;.u S S.T.. . U.J. .F @.@.@.@.@.@.+. ...V.W.. . . . . . . . . . X.Y.. . ",
". . . Z.x T R S S S S S R -.`. +. . .++++. .@.@.@.@.@.@.@.#.+.@+#+. . . . . . . . . . . . . . . ",
". . . $+%+R v S S S S R ;.t }.&+. . *+=+H @. .@.@.@.@.@.+...-+;+. . . . . . . . . . . . . . . . ",
". . . >+r v S S S S S S S t h.,+. . '+)+K.0.@.@.@.@.@.@.@.F J.!+. . . . . . . . . . . . . . . . ",
". . ~+{+;.u S S S S S S ;.t ]+^+. . /+F F @.@.@.@.@.@.@.#.K.(+_+. . . . . . . . . . . . . . . . ",
". . :+<+;.^.S S S S S S R |.[+}+. . |+1+$. .@.@.@.@.@.@.@...2+3+. . . . . . . . . . . . . . . . ",
". . 4+b.;.S S S S S S S R v [+5+. . 6+1+F $.@.@.@.@.@.@.@.#.7+N.. . . . . . . . . . . . . . . . ",
". . _ 8+-.R S S S S S S S u 9+0+. . a+I p.+.@.@.@.@.@.@.#.K.d b+. . . . . . . . . . . . . . . . ",
". . . c+h.^.S S S S S S S v r d+. . e+G F @.@.@.@.@.@.@.#.F k f+. . . . . . . . . . . . . . . . ",
". . . g+r S ].R S S S S S v h+i+. . j+k+l+0.@.@.@.@.@.@.@.F K.m+. . . . . . . . . . . . . . . . ",
". . . n+o+T R S S S S S S S u p+. . q+r+l...+.@.@.@.@.@.@.F @.s+. . . . . . . . . . . . . . . . ",
". . . t+r |.v R S S S S S u ^.u+. . v+w+E F #.@.@.@.@.@.@.@...h x+. . . . . . . . . . . . . . . ",
". . . . y+u u ;.S S S S S S u ;.z+. . A+B+#.F @.@.@.@.@.@...0.G E C+X . . . . . . . . . D+E+. . ",
". . . . F+2 u ].R S S S S ;.v %+G+. . H+2+F F +.@.@.@.@.@.@.0.+.p.@+I+J+. . . . . . K+L+e M+. . ",
". . . . 8.N+s v ;.v ;.S S S -.6.v O+. . P+Q+F 0.#.0.@.@.@.@.@.$.F F +.e R+S+T+U+V+W+X+j e.&.. . ",
". . . . . Y+G.S v ;.R S S ;.R Z+;.`+. .  @.@+@#.0.@.@.@.@.@.@. .#.+.l+$.@@..#@+.0.#.F G %.&.. . ",
". . . . . . $@%@F.v ;.S S S v ].u &@*@. . =@-@;@$.@. .@.@.@.@.@.@.#.@...#.F @.$.+.0.0.F %.&.. . ",
". . . . . . . >@u ;.u S u S S S u u u+,@. . '@F K.F #.@.@.@.@.@.@.@.@.@.@.@.@.@.@.@.@.F %.&.. . ",
". . . . . . . )@!@u v u S S S u S -.s ~@{@. H+]@^@/@#.$.F $.@.@.@.@.@.@.@.@.@.@.@.@.@.F %.&.. . ",
". . . . . . . . (@_@:@u u S R ;.-.S }.:@<@(@. . [@}@F F #@@.#.0.@.@.@.@.@.@.@.@.@.@. .F %.&.. . ",
". . . . . . . . . |@1@O u u u S v ;.v }.2@3@4@. 5@6@%.G F F F +.0.+.@.+.@.@.#.@.@.F @.F %.D.. . ",
". . . . . . . . . . . H.b.7@:@}.v -.].].v }.&@8@9@. 0@a@J b@G F F F F #. . .#...F ..H @.c@d@. . ",
". . . . . . . . . . . . a.e@f@g@%@T ].h@Z+u ].-.i@j@k@l@m@n@(+B+o@H p@F @.@. ...+@q@k r@s@M.. . ",
". . . . . . . . . . . . . . . t@u@v@w@x@y@3@y@z@w@A@B@C@. . .+D@E@F@G@H@I@I@J@K@L@M@N@. . . . . ",
". . . . . . . . . . . . . . . . . . . . O@4+O@. . . . . . . . . . . . P@Q@R@S@. . . . . . . . . ",
". . . . . . . . . . . . . . . . . . . . . . . . . . . . . . . . . . . . . . . . . . . . . . . . ",
". . . . . . . . . . . . . . . . . . . . . . . . . . . . . . . . . . . . . . . . . . . . . . . . "};
