/* XPM */
static char * 48x48_xpm[] = {
"48 48 313 2",
"  	c None",
". 	c #130802",
"+ 	c #351704",
"@ 	c #4E2206",
"# 	c #5F2A09",
"$ 	c #672D08",
"% 	c #682D08",
"& 	c #602A09",
"* 	c #4F2307",
"= 	c #311604",
"- 	c #3D3B22",
"; 	c #676439",
"> 	c #847F49",
", 	c #949050",
"' 	c #999553",
") 	c #938E50",
"! 	c #807B45",
"~ 	c #5C5933",
"{ 	c #242215",
"] 	c #210D02",
"^ 	c #592607",
"/ 	c #A0470D",
"( 	c #BA510B",
"_ 	c #B8500B",
": 	c #B44E0A",
"< 	c #B24D09",
"[ 	c #B14C09",
"} 	c #B04C09",
"| 	c #B14D09",
"1 	c #B8500A",
"2 	c #B74F0B",
"3 	c #99440E",
"4 	c #261106",
"5 	c #1F1E11",
"6 	c #636036",
"7 	c #BFBC6B",
"8 	c #FFFF95",
"9 	c #FFFF8F",
"0 	c #FFFF8D",
"a 	c #FFFD8A",
"b 	c #FFFA88",
"c 	c #FFF988",
"d 	c #FFFB88",
"e 	c #FFFE8A",
"f 	c #FFFF91",
"g 	c #E2DE7D",
"h 	c #6C6B3D",
"i 	c #361707",
"j 	c #9C440A",
"k 	c #A94A0A",
"l 	c #B04C0A",
"m 	c #AE4B09",
"n 	c #AD4A0A",
"o 	c #AD4B0A",
"p 	c #AD4B0B",
"q 	c #AC4A09",
"r 	c #B54F0B",
"s 	c #73330A",
"t 	c #130701",
"u 	c #BEBE6B",
"v 	c #F2E980",
"w 	c #FEF788",
"x 	c #FFF887",
"y 	c #FDF586",
"z 	c #FCF586",
"A 	c #FCF585",
"B 	c #FEF786",
"C 	c #FFF888",
"D 	c #FAF385",
"E 	c #575430",
"F 	c #78340A",
"G 	c #B9500A",
"H 	c #AB4A09",
"I 	c #AE4A09",
"J 	c #AE4B0B",
"K 	c #AE4C0B",
"L 	c #AC4A0A",
"M 	c #B14C0A",
"N 	c #9C440B",
"O 	c #351705",
"P 	c #626139",
"Q 	c #FFFF8E",
"R 	c #FFF786",
"S 	c #FDF686",
"T 	c #FEF586",
"U 	c #FEF686",
"V 	c #FEF687",
"W 	c #FEF587",
"X 	c #FDF587",
"Y 	c #FFFF8B",
"Z 	c #656239",
"` 	c #311507",
" .	c #A74A0A",
"..	c #AE4B0A",
"+.	c #AE4C0A",
"@.	c #78350A",
"#.	c #C7C16D",
"$.	c #FDF888",
"%.	c #451E07",
"&.	c #B34D0B",
"*.	c #AD4C0A",
"=.	c #AD4C0B",
"-.	c #B84F0B",
";.	c #6A2E08",
">.	c #DAD577",
",.	c #2E1304",
"'.	c #B14D0B",
").	c #AC4B0A",
"!.	c #AD4A0B",
"~.	c #AE4D0A",
"{.	c #6A2F08",
"].	c #FFF98C",
"^.	c #301505",
"/.	c #AC4B09",
"(.	c #8F3E0B",
"_.	c #C7C36D",
":.	c #FDF687",
"<.	c #97420A",
"[.	c #B7500D",
"}.	c #928E52",
"|.	c #FFFF8A",
"1.	c #662D08",
"2.	c #B34D0A",
"3.	c #AF4C0A",
"4.	c #391804",
"5.	c #2E2C19",
"6.	c #FEFB8A",
"7.	c #FDF485",
"8.	c #FCF484",
"9.	c #FFFD8B",
"0.	c #FDF484",
"a.	c #FCF486",
"b.	c #B44F0B",
"c.	c #9C450B",
"d.	c #C1BE6B",
"e.	c #E6E582",
"f.	c #AAA65D",
"g.	c #69663A",
"h.	c #474527",
"i.	c #3C3A24",
"j.	c #524F2D",
"k.	c #8D894C",
"l.	c #D1D078",
"m.	c #656138",
"n.	c #5D2908",
"o.	c #AD4B09",
"p.	c #B24E0A",
"q.	c #4A2006",
"r.	c #302F1B",
"s.	c #FFFB89",
"t.	c #FDF585",
"u.	c #8E894E",
"v.	c #34331D",
"w.	c #EAE780",
"x.	c #6B683C",
"y.	c #A3470B",
"z.	c #AB4B0A",
"A.	c #949354",
"B.	c #F7F486",
"C.	c #474528",
"D.	c #252416",
"E.	c #190A03",
"F.	c #AD4A09",
"G.	c #8F400C",
"H.	c #E6DE7C",
"I.	c #FFFB8A",
"J.	c #565430",
"K.	c #5D2A0A",
"L.	c #B24D0A",
"M.	c #552606",
"N.	c #1D1C10",
"O.	c #F0EF83",
"P.	c #FCF386",
"Q.	c #C3C06C",
"R.	c #813A0A",
"S.	c #3C1B05",
"T.	c #34321C",
"U.	c #F9F486",
"V.	c #5E5B34",
"W.	c #8F3E09",
"X.	c #B24D0B",
"Y.	c #2B1203",
"Z.	c #424024",
"`.	c #FFFF93",
" +	c #954109",
".+	c #B34E09",
"++	c #220F04",
"@+	c #4B4929",
"#+	c #FFF787",
"$+	c #FFF889",
"%+	c #200E04",
"&+	c #4C4B29",
"*+	c #FBF385",
"=+	c #913F09",
"-+	c #B34E0B",
";+	c #261004",
">+	c #474526",
",+	c #883B0A",
"'+	c #341704",
")+	c #3B381F",
"!+	c #2E2C1A",
"~+	c #72330A",
"{+	c #AD4A08",
"]+	c #471F06",
"^+	c #292816",
"/+	c #F5F184",
"(+	c #FDF486",
"_+	c #88874E",
":+	c #3C1B06",
"<+	c #B44E0B",
"[+	c #72310A",
"}+	c #EBEA82",
"|+	c #F7EF84",
"1+	c #A2470A",
"2+	c #BEBB69",
"3+	c #B8B465",
"4+	c #8A3E0B",
"5+	c #271103",
"6+	c #6C683C",
"7+	c #FFFC8A",
"8+	c #817D46",
"9+	c #262413",
"0+	c #6E6A41",
"a+	c #3C1A05",
"b+	c #6F3009",
"c+	c #D7D575",
"d+	c #4C4A2B",
"e+	c #262516",
"f+	c #A8A65D",
"g+	c #656238",
"h+	c #A0460B",
"i+	c #140801",
"j+	c #797745",
"k+	c #FCF686",
"l+	c #DDD979",
"m+	c #B0AB5F",
"n+	c #979354",
"o+	c #928D51",
"p+	c #A49F59",
"q+	c #CDC66E",
"r+	c #FEF888",
"s+	c #341605",
"t+	c #AC4B0B",
"u+	c #5F2907",
"v+	c #F9F487",
"w+	c #FCF485",
"x+	c #FEF585",
"y+	c #FDF487",
"z+	c #793509",
"A+	c #AE4A08",
"B+	c #BB520C",
"C+	c #361805",
"D+	c #474628",
"E+	c #FFF989",
"F+	c #FCF587",
"G+	c #B1500F",
"H+	c #918D4F",
"I+	c #9E450B",
"J+	c #9A440C",
"K+	c #9E9C58",
"L+	c #FFFF8C",
"M+	c #FDF385",
"N+	c #A2470C",
"O+	c #AF4B09",
"P+	c #9B440C",
"Q+	c #999654",
"R+	c #FFFC89",
"S+	c #7B360B",
"T+	c #AE4C09",
"U+	c #A7490B",
"V+	c #2F1504",
"W+	c #55532F",
"X+	c #B34D09",
"Y+	c #552406",
"Z+	c #160A02",
"`+	c #383621",
" @	c #C3BD69",
".@	c #FFFA89",
"+@	c #FFFF92",
"@@	c #625F37",
"#@	c #3F1B06",
"$@	c #9F460B",
"%@	c #BB520B",
"&@	c #AC4C0A",
"*@	c #A7490A",
"=@	c #71330A",
"-@	c #2F2E1A",
";@	c #B7B165",
">@	c #FCF384",
",@	c #FEF487",
"'@	c #FDF584",
")@	c #FFF78A",
"!@	c #6F6C3E",
"~@	c #1E0D03",
"{@	c #5F2B09",
"]@	c #823909",
"^@	c #9B440B",
"/@	c #A3460A",
"(@	c #A6480A",
"_@	c #A34709",
":@	c #803709",
"<@	c #562709",
"[@	c #6E6B3E",
"}@	c #A2A15D",
"|@	c #DAD477",
"1@	c #ECE57E",
"2@	c #F2EA81",
"3@	c #F4EC82",
"4@	c #F1E980",
"5@	c #EAE37E",
"6@	c #C9C66F",
"7@	c #8A8B52",
"8@	c #3D3A22",
"                                                                                                ",
"                                                                                                ",
"                                                                                                ",
"                                                                                                ",
"                                                                                                ",
"                                                                                                ",
"                                                                                                ",
"                                                                                                ",
"                                                                                                ",
"                                  . + @ # $ % & * =               - ; > , ' ) ! ~ {             ",
"                            ] ^ / ( _ : < [ } | 1 2 3 4   5 6 7 8 9 0 a b c d e 0 f g h 5       ",
"                        i j k l m n o p p o q r s t     u v w x y z y y y y y y y A B C D E     ",
"                      F G H I J K J o m L M N O     P Q R S T U T V y V V V V V S W U X Y Z     ",
"                  `  .m o ..o ..J +.+.o | @.      #.$.y y W V W V U V V V V V V V U X y Y Z     ",
"                %.&.n o ..*.K =.J ..n -.;.      >.c y y X S W V V V V V V V V V V V V y Y Z     ",
"              ,.'.).*.J =.K K +.o !.~.{.      ].S V y V W V V V V V V V V V V V V V V y Y Z     ",
"            ^.l o o +.+.J K J K o /.(.      _.S y V V V V V V V V V W V W :.V :.V X V y Y Z     ",
"            <.).*.K o K K =.+...).[.      }.0 V V y V V V V V V :.W U W y y y y y y y y |.Z     ",
"          1.2...p =.K K K K =.o 3.4.    5.6.7.:.V V V V V V V :.U X y 8.c 0 9 9 9 9.0.a.|.Z     ",
"          b.o *.J K K K K p K ..c.      d.a.y U V V V V V W S S :.y c e.f.g.h.i.j.k.l.Y Y m.    ",
"        n.o.o K =.K K K K K o p.q.    r.s.t.V X V V V V V U W y y 9.u.                v.w.x.    ",
"        y.o ..+.K K K J +.o K z.      A.s.S y V V V V V V U S T B.C.                      D.    ",
"      E.r L J K K K K K J ..F.G.      H.U S V V V V V V V W U I.J.                              ",
"      K.L.J p K K K K J +.n ).M.    N.O.A V S V V V V V U T P.Q.                                ",
"      R.l p K K K K K K K n 3.S.    T.U.t.:.V V V V V V V y s.V.                                ",
"      W.+.o K K K K K K +.n X.Y.    Z.y y V V V V V V V W t.`.                                  ",
"       ++.=.K K K K K K J !..+++    @+#+X S V V V V V V V T $+                                  ",
"      <.+.K K K K K K K J p .+%+    &+#+y X V V V V V V V W *+                                  ",
"      =+..J K K K K K K K o -+;+    >+B a.U V V V V V V W t.9                                   ",
"      ,+3.=.K K K K K K K p l '+    )+z y V V V V V V V W y f !+                                ",
"      ~+l K *.J K K K K K p {+]+    ^+/+(+:.V V V V V V V y t._+                                ",
"      :+<+L J K K K K K K K o [+      }+7.T U V V V V V V y V |+                                ",
"        l !.p J K K K K K o =.1+      2+x y W V V V V V V V T c 3+                              ",
"        4+o o +.K K K K K K o +.5+    6+7+W y V V V V V V T :.z x 8+                    9+0+    ",
"        a+< o *.J K K K K +.p L.b+      $+y y U V V V V V V :.U a.I.c+d+            e+f+0 g+    ",
"          h+m p +.p +.K K K ../.p i+    j+k+y :.W :.V V V V V X y y U 0 l+m+n+o+p+q+r+e |.Z     ",
"          s+p.K p +.J K K +.J t++.u+      v+w+W :.V V V V V V S W U (+X x+T y+U :.W y z Y Z     ",
"            z+A+o.p +.K K K p *.o B+C+    D+E+F+X V S V V V V V V W V T W y V X U :.:.y Y Z     ",
"              G+o +.o K o K K K o o 1+      H+y t.y W V V V V V V V V V V V V V V V V y Y Z     ",
"                I+o p o K K K o K ..m J+      K+L+M+W X y X V V V V V V V V V V V V V y Y Z     ",
"                  N+O+o o K J +...K ).O+P+      Q+R+y y y+V W :.V V V V V V V V V V S y Y Z     ",
"                    S+G o o o K p +.p ).T+U+V+    W+Y z y y y U :.U V U V V W V V y V y Y m.    ",
"                      q.<.X+O+).p ..*.*.p ).B+Y+Z+  `+ @C .@z y y y y W S S W T y T A V +@@@    ",
"                          #@$@%@A+L *.&@t+o *...*@=@    -@;@`.7+>@A ,@y V V S T w+'@f )@!@      ",
"                              ~@{@]@^@/@(@U+(@_@^@:@<@        [@}@|@1@2@3@3@4@5@6@7@8@          ",
"                                                                                                ",
"                                                                                                ",
"                                                                                                "};
